# xmcd
#
# Track frame offsets:
#   150
#   10790
#   22492
#   34972
#   52420
#   66300
#   78442
#   89229
#   103982
#   114882
#   127670
#   140605
#   155230
#   168784
#
# Disc length: 2434 seconds
#
# Revision: 0
# Processed by: cddbd v1.5.2PL0 Copyright (c) Steve Scherf et al.
# Submitted via: uFREEDB ActiveX Control 1.5
#
DISCID=ca09800e
DTITLE=Varios - Blues Special
DYEAR=1996
DGENRE=Blues
TTITLE0=B. B. King - Recession Blues
TTITLE1=Etta James - I'd rather go blind
TTITLE2=Bo Didley - I'm a man
TTITLE3=Howlin' Wolf - Sittin' on top of the world
TTITLE4=Memphis Slim and The House Rockers - I guess I'm a f
TTITLE5=Otis Spann - It must have been the devil
TTITLE6=Muddy Waters - Look what you done
TTITLE7=Jimmy Witherspoon - Goin' down slow
TTITLE8=Laura Lee - Need to belong
TTITLE9=Muddy Waters - (I'm your) Hoochie coochie man
TTITLE10=Memphis Minnie - Me and my chauffeur
TTITLE11=John Lee Hooker - Sugar mama
TTITLE12=Muddy Waters - Young fashioned ways
TTITLE13=John Lee Hooker - Worried life Blues
EXTD=
EXTT0=
EXTT1=
EXTT2=
EXTT3=
EXTT4=
EXTT5=
EXTT6=
EXTT7=
EXTT8=
EXTT9=
EXTT10=
EXTT11=
EXTT12=
EXTT13=
PLAYORDER=
